<!DOCTYPE svg PUBLIC "-//W3C//DTD SVG 1.1//EN" "http://www.w3.org/Graphics/SVG/1.1/DTD/svg11.dtd">
<!-- Uploaded to: SVG Repo, www.svgrepo.com, Transformed by: SVG Repo Mixer Tools -->
<svg fill="#ffffff" width="800px" height="800px" viewBox="0 0 100 100" data-name="Layer 1" id="Layer_1" xmlns="http://www.w3.org/2000/svg" stroke="#ffffff">

<g id="SVGRepo_bgCarrier" stroke-width="0"/>

<g id="SVGRepo_tracerCarrier" stroke-linecap="round" stroke-linejoin="round"/>

<g id="SVGRepo_iconCarrier">

<title/>

<path d="M42.76,59.24H57.24a2,2,0,0,0,2-2V42.76a2,2,0,0,0-2-2H42.76a2,2,0,0,0-2,2V57.24A2,2,0,0,0,42.76,59.24Zm2-14.48H55.24V55.24H44.76ZM80,52a2,2,0,0,0,0-4H72.84V37.83H80a2,2,0,0,0,0-4H72.84V29.16a2,2,0,0,0-2-2H66.17V20a2,2,0,0,0-4,0v7.16H52V20a2,2,0,0,0-4,0v7.16H37.83V20a2,2,0,0,0-4,0v7.16H29.16a2,2,0,0,0-2,2v4.67H20a2,2,0,0,0,0,4h7.16V48H20a2,2,0,0,0,0,4h7.16V62.17H20a2,2,0,0,0,0,4h7.16v4.67a2,2,0,0,0,2,2h4.67V80a2,2,0,0,0,4,0V72.84H48V80a2,2,0,0,0,4,0V72.84H62.17V80a2,2,0,0,0,4,0V72.84h4.67a2,2,0,0,0,2-2V66.17H80a2,2,0,0,0,0-4H72.84V52ZM68.84,68.84H31.16V31.16H68.84Z"/>

</g>

</svg>